<svg version="1.1" id="Layer_1" xmlns="http://www.w3.org/2000/svg" xmlns:xlink="http://www.w3.org/1999/xlink" x="0px" y="0px"
	 width="100%" viewBox="0 0 1024 1024" enable-background="new 0 0 1024 1024" xml:space="preserve">
<path fill="#FEFEFE" opacity="1.000000" stroke="none" 
	d="
M707.000000,1025.000000 
	C471.333344,1025.000000 236.166672,1025.000000 1.000000,1025.000000 
	C1.000000,683.666687 1.000000,342.333344 1.000000,1.000000 
	C342.333344,1.000000 683.666687,1.000000 1025.000000,1.000000 
	C1025.000000,342.333344 1025.000000,683.666687 1025.000000,1025.000000 
	C919.166687,1025.000000 813.333313,1025.000000 707.000000,1025.000000 
M475.793457,645.941040 
	C475.793457,645.941040 475.959808,645.765747 476.458496,645.820984 
	C476.606598,645.743347 476.754730,645.665710 477.469727,645.706726 
	C477.982269,645.485046 478.494781,645.263428 479.741089,645.107483 
	C480.450500,644.938354 481.159912,644.769226 482.629547,644.657349 
	C483.096069,644.472107 483.562622,644.286865 484.589539,644.325684 
	C485.356354,644.099121 486.123169,643.872559 487.641022,643.703186 
	C488.103699,643.526062 488.566376,643.348877 489.648590,643.401062 
	C490.727203,643.151123 491.805847,642.901123 493.733856,642.770996 
	C494.834961,642.553223 495.936066,642.335510 497.729248,642.368835 
	C499.442017,642.124390 501.154755,641.880005 503.599945,641.757935 
	C504.072968,641.633972 504.545990,641.510010 505.922516,641.628479 
	C513.604126,641.500916 521.285767,641.373352 529.705261,641.598999 
	C530.514221,641.605713 531.323242,641.612366 532.879211,641.857178 
	C534.905701,641.946350 536.932129,642.035583 539.679688,642.513916 
	C540.490234,642.554199 541.300842,642.594482 542.728455,642.898499 
	C543.806091,642.959656 544.883667,643.020813 546.669373,643.483154 
	C547.471497,643.555054 548.273682,643.626953 549.686279,643.962280 
	C550.126221,643.981506 550.566162,644.000671 551.645996,644.473389 
	C578.567017,649.679321 603.498108,659.675354 625.365173,676.363831 
	C633.482056,682.558594 640.616150,690.041016 648.544739,697.516907 
	C649.563660,699.414795 650.666382,701.272827 651.588379,703.216675 
	C660.498779,722.002258 673.190369,737.740601 689.726562,750.325439 
	C711.076111,766.573425 735.198486,775.558350 762.020325,776.060425 
	C790.122314,776.586487 818.240967,776.225403 846.352295,776.226562 
	C847.239197,776.226624 848.126038,775.944702 849.434448,775.722717 
	C847.334717,770.761292 845.443237,766.291687 843.346191,761.096130 
	C841.189575,756.399475 839.032959,751.702881 836.780884,746.304199 
	C832.178162,736.032593 827.619446,725.741028 822.960999,715.494812 
	C817.770874,704.079163 812.489990,692.704712 807.154785,680.600037 
	C806.783813,680.041992 806.412781,679.483887 806.147522,678.983582 
	C806.147522,678.983582 806.211060,678.881348 806.110352,678.150879 
	C786.921631,635.203613 767.745850,592.250549 748.536682,549.312378 
	C742.502197,535.823547 736.378296,522.374695 730.169739,508.169556 
	C723.530151,493.449982 716.890564,478.730408 710.138611,463.264862 
	C708.058777,458.559021 706.019836,453.834595 703.891479,449.150818 
	C697.033020,434.057587 690.141663,418.979370 683.179077,403.220062 
	C682.420288,402.148102 681.661560,401.076172 681.082458,399.248779 
	C678.458557,393.345612 675.834656,387.442413 673.153137,380.833771 
	C670.404724,374.888123 667.656311,368.942474 664.871521,362.273438 
	C659.909668,351.515442 654.947815,340.757446 649.943237,329.266113 
	C645.377319,315.837616 637.299622,304.057617 632.343689,290.714386 
	C626.748718,275.650604 619.432617,261.212433 612.591125,246.630646 
	C608.800049,238.550369 604.449341,230.732651 600.004822,222.196991 
	C598.737610,220.500153 597.541809,218.744171 596.192078,217.115738 
	C584.070618,202.491669 567.508789,196.918945 549.515503,196.481247 
	C523.559692,195.849915 497.544861,196.104462 471.600800,197.132004 
	C456.987213,197.710800 444.055847,203.917892 433.277893,215.200012 
	C428.769562,222.113373 423.374634,228.612885 419.918457,236.017349 
	C409.368744,258.618896 399.565552,281.568878 389.451447,304.515259 
	C389.451447,304.515259 389.423798,304.645935 389.001648,305.106537 
	C388.802765,305.696533 388.603851,306.286530 387.988495,307.428741 
	C384.359741,315.596039 380.715912,323.756683 377.104614,331.931702 
	C351.902466,388.982422 326.733734,446.047974 301.501953,503.085632 
	C275.935333,560.880188 250.289856,618.639893 224.719208,676.432678 
	C216.987366,693.907654 209.389542,711.441833 201.245850,729.419800 
	C194.404129,744.841248 187.562408,760.262695 180.726913,775.670166 
	C181.522964,776.042114 181.807297,776.291809 182.090729,776.290771 
	C214.583115,776.175110 247.153732,777.410950 279.547943,775.560303 
	C319.941620,773.252808 351.553162,753.553955 374.221466,720.086670 
	C379.689972,712.013062 383.722168,702.966614 389.071960,694.197388 
	C404.661713,677.331055 423.339417,664.857361 444.508026,656.261475 
	C454.470337,652.216125 464.912781,649.353333 475.207458,646.168335 
	C475.207458,646.168335 475.511261,646.163696 475.511261,646.163696 
	C475.511261,646.163696 475.559692,645.879761 475.793457,645.941040 
z"/>
<path fill="#0A3290" opacity="1.000000" stroke="none" 
	d="
M201.730301,728.948914 
	C209.389542,711.441833 216.987366,693.907654 224.719208,676.432678 
	C250.289856,618.639893 275.935333,560.880188 301.501953,503.085632 
	C326.733734,446.047974 351.902466,388.982422 377.104614,331.931702 
	C380.715912,323.756683 384.359741,315.596039 388.557068,307.041748 
	C389.225006,305.985138 389.324402,305.315552 389.423798,304.645935 
	C389.423798,304.645935 389.451447,304.515259 389.820374,304.641541 
	C392.773132,306.996918 395.492950,309.092102 397.878510,311.516205 
	C398.937744,312.592590 399.339111,314.325317 400.008118,315.774384 
	C400.760101,317.403107 401.090668,319.439819 402.280701,320.613495 
	C406.081757,324.362244 407.346863,328.278320 404.363861,333.060181 
	C404.257721,333.230377 404.558228,333.654327 404.673645,333.958374 
	C409.347595,335.888641 409.461273,335.841278 411.639130,341.067505 
	C414.141907,347.073456 411.774963,354.947632 420.574524,359.369873 
	C417.526276,360.342499 416.172668,360.667999 414.905029,361.198853 
	C411.125763,362.781555 410.099487,366.710754 412.787659,369.093231 
	C414.955719,371.014832 426.302307,371.581085 428.588226,369.561340 
	C434.505371,364.333221 441.487274,365.399719 448.211517,366.372742 
	C453.187866,367.092834 455.586426,373.698364 453.349213,378.184570 
	C452.600616,379.685699 451.901703,382.808655 452.383545,383.083984 
	C458.459717,386.555695 458.011688,392.021149 457.412720,397.659546 
	C457.348969,398.259857 457.854584,398.903076 458.009644,399.547211 
	C458.691223,402.378357 458.880798,405.443085 460.131012,407.989990 
	C461.397308,410.569611 463.254944,413.527496 465.651581,414.732208 
	C469.571564,416.702637 471.479156,419.012299 469.450012,422.727722 
	C464.558533,431.684235 465.655212,441.564789 463.503601,451.516541 
	C458.076263,453.394226 457.349548,455.835693 461.397827,462.001160 
	C463.034149,464.493286 464.437103,466.696930 463.294861,470.207458 
	C461.929779,474.402802 465.101746,477.651276 469.594421,479.181458 
	C471.398865,479.796082 473.601105,482.227600 473.779358,484.015869 
	C474.160370,487.838409 473.339600,491.780762 472.917450,496.783691 
	C468.960022,495.081238 465.386658,494.459595 463.200562,492.379761 
	C460.238342,489.561584 457.480560,489.692291 454.686127,491.382538 
	C452.208313,492.881287 450.753998,492.623444 448.613647,490.813599 
	C447.531281,489.898346 444.219696,489.658630 443.717010,490.375854 
	C442.017273,492.800873 441.293488,495.881836 439.870117,498.537109 
	C438.583466,500.937347 437.104553,503.325256 435.272247,505.315094 
	C433.659576,507.066406 432.335449,508.268433 434.038330,510.814026 
	C434.538513,511.561615 433.471069,513.357971 433.122070,514.673645 
	C428.891907,512.815063 427.562927,517.036438 424.849823,518.424072 
	C422.403351,519.675293 419.326477,519.645630 416.576111,520.365967 
	C414.346375,520.949951 411.302368,521.147705 410.166534,522.670593 
	C406.877960,527.080017 404.366333,532.069336 401.556061,536.834778 
	C400.575165,538.498169 399.642944,541.577881 398.636078,541.599792 
	C394.109497,541.698120 393.005341,544.883240 391.354492,547.960144 
	C389.990784,550.501831 387.865173,552.676636 385.207947,549.559082 
	C382.627045,546.531128 380.316040,547.146484 377.381470,548.758301 
	C373.812958,550.718140 370.472046,552.300598 367.434052,547.169067 
	C364.750244,542.635864 364.176849,543.096985 361.086243,547.522095 
	C360.046844,549.010315 357.866852,549.701843 356.208160,550.757446 
	C355.841400,548.930420 355.429382,547.110413 355.140991,545.271118 
	C355.072205,544.832275 355.482697,544.339294 355.558960,543.853333 
	C356.082092,540.519165 353.719482,538.659729 350.439697,539.804199 
	C345.537048,541.514954 344.000824,544.845581 345.634766,549.587830 
	C342.704437,553.226196 339.901031,556.706909 337.108276,560.174438 
	C337.685455,560.848694 338.072418,561.184509 338.313721,561.604065 
	C339.077332,562.931885 339.786469,564.291016 340.516724,565.638062 
	C339.044250,565.820679 337.576202,566.063354 336.098297,566.171143 
	C334.127228,566.314819 332.118835,566.165588 330.178528,566.472046 
	C323.815765,567.477112 320.212250,563.672241 321.586426,557.448059 
	C321.778046,556.580200 320.964691,555.490356 320.616547,554.503296 
	C319.762207,555.237061 318.591614,555.809265 318.117462,556.737305 
	C317.034607,558.856873 316.395294,561.198303 315.388062,563.362183 
	C313.896484,566.566711 312.242096,569.695374 311.190399,571.792664 
	C314.081512,575.435669 315.697327,579.170227 318.493256,580.604675 
	C322.912109,582.871887 320.546021,584.651855 319.075745,586.689331 
	C316.751770,589.909912 314.163055,592.938965 311.824921,596.149963 
	C309.859619,598.848938 307.383118,598.814209 305.622284,596.637329 
	C304.396545,595.122009 303.964935,592.555786 304.033081,590.487183 
	C304.175507,586.166077 301.055328,581.044983 298.719574,582.546753 
	C294.612213,585.187683 291.263672,584.474304 286.836212,581.393372 
	C286.114990,586.426392 285.133301,590.322510 285.119446,594.222046 
	C285.106201,597.962830 284.103760,600.236877 280.295105,601.119263 
	C279.103729,601.395325 278.057861,602.403320 277.006500,603.161072 
	C273.622925,605.599792 270.522308,608.603760 266.829224,610.390930 
	C263.248260,612.123840 261.583771,613.765930 262.731598,617.934021 
	C263.811981,621.857239 265.832581,626.680542 264.492401,629.869202 
	C261.729858,636.441833 259.368317,643.345215 253.148651,648.462830 
	C249.147552,651.754944 245.501633,657.434387 247.989548,664.237061 
	C247.983353,664.484985 247.968918,664.980591 247.670151,665.133240 
	C235.936722,680.861633 224.502045,696.437439 212.892151,712.309692 
	C211.249344,715.174683 209.933441,717.846313 208.275452,720.285400 
	C206.243301,723.274902 203.924927,726.069885 201.730301,728.948914 
z"/>
<path fill="#072E8B" opacity="1.000000" stroke="none" 
	d="
M247.995743,663.989197 
	C245.501633,657.434387 249.147552,651.754944 253.148651,648.462830 
	C259.368317,643.345215 261.729858,636.441833 264.492401,629.869202 
	C265.832581,626.680542 263.811981,621.857239 262.731598,617.934021 
	C261.583771,613.765930 263.248260,612.123840 266.829224,610.390930 
	C270.522308,608.603760 273.622925,605.599792 277.006500,603.161072 
	C278.057861,602.403320 279.103729,601.395325 280.295105,601.119263 
	C284.103760,600.236877 285.106201,597.962830 285.119446,594.222046 
	C285.133301,590.322510 286.114990,586.426392 286.836212,581.393372 
	C291.263672,584.474304 294.612213,585.187683 298.719574,582.546753 
	C301.055328,581.044983 304.175507,586.166077 304.033081,590.487183 
	C303.964935,592.555786 304.396545,595.122009 305.622284,596.637329 
	C307.383118,598.814209 309.859619,598.848938 311.824921,596.149963 
	C314.163055,592.938965 316.751770,589.909912 319.075745,586.689331 
	C320.546021,584.651855 322.912109,582.871887 318.493256,580.604675 
	C315.697327,579.170227 314.081512,575.435669 311.190399,571.792664 
	C312.242096,569.695374 313.896484,566.566711 315.388062,563.362183 
	C316.395294,561.198303 317.034607,558.856873 318.117462,556.737305 
	C318.591614,555.809265 319.762207,555.237061 320.616547,554.503296 
	C320.964691,555.490356 321.778046,556.580200 321.586426,557.448059 
	C320.212250,563.672241 323.815765,567.477112 330.178528,566.472046 
	C332.118835,566.165588 334.127228,566.314819 336.098297,566.171143 
	C337.576202,566.063354 339.044250,565.820679 340.516724,565.638062 
	C339.786469,564.291016 339.077332,562.931885 338.313721,561.604065 
	C338.072418,561.184509 337.685455,560.848694 337.108276,560.174438 
	C339.901031,556.706909 342.704437,553.226196 345.634766,549.587830 
	C344.000824,544.845581 345.537048,541.514954 350.439697,539.804199 
	C353.719482,538.659729 356.082092,540.519165 355.558960,543.853333 
	C355.482697,544.339294 355.072205,544.832275 355.140991,545.271118 
	C355.429382,547.110413 355.841400,548.930420 356.208160,550.757446 
	C357.866852,549.701843 360.046844,549.010315 361.086243,547.522095 
	C364.176849,543.096985 364.750244,542.635864 367.434052,547.169067 
	C370.472046,552.300598 373.812958,550.718140 377.381470,548.758301 
	C380.316040,547.146484 382.627045,546.531128 385.207947,549.559082 
	C387.865173,552.676636 389.990784,550.501831 391.354492,547.960144 
	C393.005341,544.883240 394.109497,541.698120 398.636078,541.599792 
	C399.642944,541.577881 400.575165,538.498169 401.556061,536.834778 
	C404.366333,532.069336 406.877960,527.080017 410.166534,522.670593 
	C411.302368,521.147705 414.346375,520.949951 416.576111,520.365967 
	C419.326477,519.645630 422.403351,519.675293 424.849823,518.424072 
	C427.562927,517.036438 428.891907,512.815063 433.122070,514.673645 
	C433.471069,513.357971 434.538513,511.561615 434.038330,510.814026 
	C432.335449,508.268433 433.659576,507.066406 435.272247,505.315094 
	C437.104553,503.325256 438.583466,500.937347 439.870117,498.537109 
	C441.293488,495.881836 442.017273,492.800873 443.717010,490.375854 
	C444.219696,489.658630 447.531281,489.898346 448.613647,490.813599 
	C450.753998,492.623444 452.208313,492.881287 454.686127,491.382538 
	C457.480560,489.692291 460.238342,489.561584 463.200562,492.379761 
	C465.386658,494.459595 468.960022,495.081238 472.917450,496.783691 
	C473.339600,491.780762 474.160370,487.838409 473.779358,484.015869 
	C473.601105,482.227600 471.398865,479.796082 469.594421,479.181458 
	C465.101746,477.651276 461.929779,474.402802 463.294861,470.207458 
	C464.437103,466.696930 463.034149,464.493286 461.397827,462.001160 
	C457.349548,455.835693 458.076263,453.394226 463.503601,451.516541 
	C465.655212,441.564789 464.558533,431.684235 469.450012,422.727722 
	C471.479156,419.012299 469.571564,416.702637 465.651581,414.732208 
	C463.254944,413.527496 461.397308,410.569611 460.131012,407.989990 
	C458.880798,405.443085 458.691223,402.378357 458.009644,399.547211 
	C457.854584,398.903076 457.348969,398.259857 457.412720,397.659546 
	C458.011688,392.021149 458.459717,386.555695 452.383545,383.083984 
	C451.901703,382.808655 452.600616,379.685699 453.349213,378.184570 
	C455.586426,373.698364 453.187866,367.092834 448.211517,366.372742 
	C441.487274,365.399719 434.505371,364.333221 428.588226,369.561340 
	C426.302307,371.581085 414.955719,371.014832 412.787659,369.093231 
	C410.099487,366.710754 411.125763,362.781555 414.905029,361.198853 
	C416.172668,360.667999 417.526276,360.342499 420.574524,359.369873 
	C411.774963,354.947632 414.141907,347.073456 411.639130,341.067505 
	C409.461273,335.841278 409.347595,335.888641 404.673645,333.958374 
	C404.558228,333.654327 404.257721,333.230377 404.363861,333.060181 
	C407.346863,328.278320 406.081757,324.362244 402.280701,320.613495 
	C401.090668,319.439819 400.760101,317.403107 400.008118,315.774384 
	C399.339111,314.325317 398.937744,312.592590 397.878510,311.516205 
	C395.492950,309.092102 392.773132,306.996918 389.830597,304.575562 
	C399.565552,281.568878 409.368744,258.618896 419.918457,236.017349 
	C423.374634,228.612885 428.769562,222.113373 433.651978,215.403458 
	C434.367767,216.401093 434.709473,217.195267 435.073792,218.351166 
	C439.373871,227.816971 443.651306,236.921021 447.947083,246.402283 
	C448.111420,247.423950 448.151367,248.116470 448.418640,248.705948 
	C461.717987,278.038910 475.084442,307.341522 488.337921,336.695160 
	C498.292542,358.742615 508.104767,380.854309 517.980957,403.188019 
	C517.986389,403.772736 517.991272,404.106812 517.694946,404.673584 
	C507.413513,425.944275 497.206238,446.878571 487.535950,468.058044 
	C481.432312,481.425903 476.248444,495.210724 470.429321,508.712555 
	C466.471008,517.896790 462.127228,526.914917 457.684143,536.216675 
	C456.747864,538.395996 456.083221,540.365906 455.379028,542.215942 
	C455.339539,542.095947 455.479370,542.306335 455.120209,542.372620 
	C454.550812,543.342834 454.340546,544.246826 454.092621,545.107300 
	C454.054962,545.063782 454.166962,545.090149 453.909576,545.181458 
	C453.455078,545.568665 453.257965,545.864624 453.063782,546.500854 
	C452.474243,548.207764 451.881744,549.574341 451.197845,551.192749 
	C450.829437,551.645630 450.552399,551.846619 449.830261,552.021545 
	C437.591095,554.668152 425.796997,557.340881 413.625763,560.045227 
	C406.817688,562.353821 400.386780,564.630737 393.562927,566.930176 
	C389.071594,568.598755 384.973267,570.244934 380.501862,571.911316 
	C377.072296,573.260071 374.015808,574.588623 370.586487,575.947083 
	C358.999390,581.713318 347.612457,587.138489 336.605011,593.247437 
	C309.188995,608.462891 284.418701,627.270569 262.175018,649.376892 
	C257.361847,654.160339 252.717728,659.113953 247.995743,663.989197 
z"/>
<path fill="#7A7A79" opacity="1.000000" stroke="none" 
	d="
M843.551697,761.822144 
	C845.443237,766.291687 847.334717,770.761292 849.434448,775.722717 
	C848.126038,775.944702 847.239197,776.226624 846.352295,776.226562 
	C818.240967,776.225403 790.122314,776.586487 762.020325,776.060425 
	C735.198486,775.558350 711.076111,766.573425 689.726562,750.325439 
	C673.190369,737.740601 660.498779,722.002258 651.588379,703.216675 
	C650.666382,701.272827 649.563660,699.414795 648.345886,696.842529 
	C647.837708,695.226196 647.607422,694.249207 647.207397,693.347412 
	C637.966858,672.514038 628.762207,651.664612 619.435852,630.869690 
	C611.367920,612.880676 603.157898,594.955444 594.957825,576.713318 
	C594.644043,576.135986 594.382996,575.847290 594.141907,575.222412 
	C593.944702,574.255859 593.727600,573.625610 593.574219,572.670959 
	C592.804199,571.113525 591.970459,569.880554 591.149658,568.479248 
	C591.162537,568.310852 591.019958,568.004761 590.955017,567.719604 
	C590.633606,567.143738 590.377136,566.853027 590.144897,566.227600 
	C589.965820,565.260559 589.762451,564.628235 589.605225,563.698486 
	C589.149231,562.810669 588.647034,562.220337 588.161011,561.466614 
	C588.177246,561.303284 588.033142,561.008362 587.966003,560.726196 
	C587.641663,560.158508 587.384399,559.872986 586.966064,559.292297 
	C585.892517,556.669312 584.980042,554.341553 584.050659,551.640747 
	C583.627014,550.654846 583.220276,550.041809 582.828430,549.268860 
	C582.843323,549.108948 583.119263,548.944519 583.525513,548.966919 
	C588.010376,549.661926 592.133057,550.138977 596.158752,551.046021 
	C605.808533,553.219971 615.412720,555.596130 625.054932,558.258240 
	C626.855042,561.377625 628.245422,564.524658 630.522827,566.773132 
	C632.930481,569.150208 636.530579,570.306213 638.990234,572.646667 
	C643.418335,576.860046 647.523071,581.442261 651.463928,586.122131 
	C652.763428,587.665283 654.286743,590.414124 653.740295,591.876343 
	C651.369507,598.219727 655.856812,602.319458 658.214844,606.950378 
	C659.174133,608.834351 662.059448,609.818115 664.184998,611.002319 
	C665.876587,611.944885 668.402588,612.076477 669.414978,613.425842 
	C672.766785,617.893188 676.027588,622.540405 678.469421,627.536011 
	C679.868103,630.397644 680.148987,634.093079 679.992493,637.368225 
	C679.653625,644.461670 678.509644,651.515991 678.150696,658.609436 
	C678.058044,660.439819 679.135742,663.150146 680.570068,664.086792 
	C685.313049,667.183960 690.464722,669.655090 695.838928,672.572388 
	C695.726135,673.556396 695.543762,675.147156 695.341492,676.911621 
	C696.628052,677.515930 698.040955,677.813171 698.933044,678.659485 
	C703.887024,683.359192 708.852234,683.952820 715.463318,681.307312 
	C723.984802,677.897400 727.132935,679.874023 729.824097,687.952148 
	C726.927368,689.363525 723.964294,690.807129 720.481079,692.504211 
	C723.596741,694.624084 725.738953,694.553650 727.949951,692.239746 
	C730.898926,689.153381 733.762634,689.036560 736.827942,692.452942 
	C738.433105,694.241943 740.789917,695.344116 742.754150,696.826843 
	C744.794800,698.367310 747.377075,699.615295 748.650574,701.659119 
	C751.337524,705.971558 753.445312,710.666321 755.517761,715.325623 
	C756.063416,716.552429 755.906738,718.295532 755.565613,719.676392 
	C754.304077,724.783325 756.062256,728.316589 760.558411,730.879761 
	C761.892578,731.640320 763.748962,733.158508 763.741516,734.319092 
	C763.701965,740.488037 763.700867,746.754639 762.602173,752.790039 
	C761.632324,758.117188 764.035339,762.686462 768.753662,762.663513 
	C771.576111,762.649841 774.914551,762.810974 777.120789,764.262146 
	C781.602356,767.210083 784.082886,763.959839 786.462830,761.752197 
	C788.707397,759.670227 791.252747,756.883545 788.205750,753.159058 
	C787.460632,752.248291 787.171326,749.756348 787.776917,749.205383 
	C788.961609,748.127563 790.996643,747.269897 792.551697,747.446777 
	C797.336243,747.990662 797.950928,750.170898 795.500061,756.186829 
	C800.569092,760.365295 805.983337,759.030884 811.877136,758.166077 
	C818.074097,757.256775 824.607056,758.068054 830.925354,758.752991 
	C835.194885,759.215759 839.347046,760.761047 843.551697,761.822144 
z"/>
<path fill="#010B4D" opacity="1.000000" stroke="none" 
	d="
M414.002930,560.013550 
	C425.796997,557.340881 437.591095,554.668152 449.771729,552.398926 
	C444.519348,565.538696 438.880432,578.275085 433.144745,591.384521 
	C431.416718,595.846069 429.785522,599.934509 428.057800,604.320251 
	C427.870300,605.021179 427.779266,605.424927 427.754028,605.823181 
	C427.819794,605.817749 427.739929,605.712585 427.401733,605.817749 
	C425.117188,609.951416 423.170868,613.979980 421.133698,618.383789 
	C417.488770,626.502747 413.874451,634.219482 410.395721,641.996887 
	C405.899597,652.048767 401.399109,662.101501 397.115295,672.244568 
	C394.033295,679.542053 391.302429,686.987915 388.414917,694.367554 
	C383.722168,702.966614 379.689972,712.013062 374.221466,720.086670 
	C351.553162,753.553955 319.941620,773.252808 279.547943,775.560303 
	C247.153732,777.410950 214.583115,776.175110 182.090729,776.290771 
	C181.807297,776.291809 181.522964,776.042114 180.726913,775.670166 
	C187.562408,760.262695 194.404129,744.841248 201.488068,729.184326 
	C203.924927,726.069885 206.243301,723.274902 208.275452,720.285400 
	C209.933441,717.846313 211.249344,715.174683 213.293365,712.315674 
	C217.378738,711.807861 220.993530,712.048584 224.372208,711.267761 
	C229.654068,710.046875 233.351486,712.265930 237.518448,715.051270 
	C243.553650,719.085388 251.698120,719.260986 256.917664,725.159668 
	C257.433533,725.742615 259.036163,725.550232 260.102264,725.430786 
	C269.130005,724.419312 278.150299,723.341125 287.144379,722.286255 
	C289.163666,727.318298 291.803406,728.692383 294.430939,725.688904 
	C298.932526,720.543152 304.249207,720.501770 310.302002,721.508545 
	C313.916870,722.109924 318.138672,722.711426 321.319183,721.420105 
	C326.081635,719.486389 330.212372,715.952209 334.531586,712.982056 
	C340.834412,708.647949 342.082642,701.235718 344.725342,694.875427 
	C345.862976,692.137512 346.047333,689.692871 348.574738,687.175049 
	C351.366821,684.393494 352.421082,680.033264 357.613495,680.472412 
	C358.010681,680.506042 358.475647,679.199463 358.981689,678.574585 
	C362.003265,674.843689 365.298584,671.302673 367.997894,667.353333 
	C369.973297,664.463074 371.447876,661.145264 372.672546,657.842529 
	C377.111359,645.871643 388.203857,636.858643 388.192505,622.918945 
	C388.192261,622.624695 388.421539,622.277161 388.639343,622.043701 
	C393.428009,616.911011 392.757050,610.489868 393.109039,604.216003 
	C393.245972,601.774963 394.135101,599.099243 395.480438,597.056458 
	C399.054840,591.629150 403.786530,586.856506 406.704559,581.133423 
	C409.845001,574.974121 409.239685,567.246704 413.917603,561.485779 
	C414.169067,561.176086 413.984497,560.512451 414.002930,560.013550 
z"/>
<path fill="#363635" opacity="1.000000" stroke="none" 
	d="
M517.996216,404.440918 
	C517.991272,404.106812 517.986389,403.772736 518.255737,402.981812 
	C526.994019,383.752960 535.550964,365.022003 543.876404,346.188721 
	C547.211365,338.644409 550.036682,330.874817 553.426025,323.095337 
	C554.191528,321.980225 554.624939,320.977570 555.096924,319.754944 
	C555.135498,319.535004 555.160400,319.089081 555.444519,318.903564 
	C560.823730,307.487793 565.918823,296.257507 571.283447,284.790955 
	C571.771118,283.762085 571.884216,282.921356 572.222595,282.184052 
	C578.911499,267.610535 585.569946,253.022568 592.365906,238.498978 
	C594.853271,233.183289 597.679382,228.026108 600.350891,222.796600 
	C604.449341,230.732651 608.800049,238.550369 612.591125,246.630646 
	C619.432617,261.212433 626.748718,275.650604 632.343689,290.714386 
	C637.299622,304.057617 645.377319,315.837616 649.594299,329.635468 
	C645.834106,334.403778 641.269409,338.343475 639.290710,343.312836 
	C636.544983,350.208679 634.621216,352.990540 627.514160,354.073181 
	C625.102295,354.440613 622.642151,355.266022 620.488342,356.415039 
	C612.505493,360.673828 610.365112,365.929565 611.655579,375.005646 
	C611.919006,376.857910 610.303406,379.687653 608.683594,380.948730 
	C605.363464,383.533539 601.443542,385.344086 597.788818,387.504181 
	C594.317810,389.555695 590.804749,391.546387 587.428406,393.745239 
	C583.190063,396.505402 578.921082,399.262909 574.992371,402.427460 
	C573.781860,403.402496 572.762451,405.956085 573.161255,407.358643 
	C575.022583,413.903351 570.308350,415.227844 566.074890,416.799805 
	C561.708496,418.421173 558.677673,421.186279 557.294250,425.612305 
	C555.057190,432.769226 552.211487,434.205383 546.329041,431.624207 
	C542.201843,434.502960 538.411926,437.146393 534.377930,439.498688 
	C528.754639,427.618652 523.375427,416.029785 517.996216,404.440918 
z"/>
<path fill="#2FDBD4" opacity="1.000000" stroke="none" 
	d="
M428.154297,604.023010 
	C429.785522,599.934509 431.416718,595.846069 433.500916,591.436462 
	C438.786530,592.739502 443.540955,594.683289 448.475525,595.890930 
	C452.738464,596.934082 454.071320,598.456848 452.579742,602.680420 
	C450.956665,607.276306 449.145630,611.805786 447.182861,616.980286 
	C450.367157,618.133606 453.444244,619.248108 457.522278,620.725159 
	C457.618439,620.953125 458.226013,622.394043 458.833618,623.834961 
	C459.353882,623.934753 459.874146,624.034607 460.394409,624.134399 
	C460.792603,622.487366 461.454224,620.851624 461.525970,619.190491 
	C461.628113,616.826050 464.591858,614.081604 466.219391,615.399414 
	C467.554108,616.480042 468.015930,618.638672 468.930023,620.448914 
	C474.099060,620.336975 484.816010,624.538879 487.638306,628.131348 
	C492.441895,621.307068 498.700073,624.630127 504.586548,625.861633 
	C507.172546,626.402649 510.960480,631.635254 510.414551,623.752441 
	C510.383698,623.306885 511.129364,622.484680 511.631714,622.373962 
	C518.043396,620.961670 524.857361,618.884338 530.730530,622.736694 
	C535.051270,625.570679 536.925171,625.782410 537.665894,619.906128 
	C540.610962,622.006653 542.954407,624.178467 545.703186,625.519714 
	C549.690613,627.465454 554.337036,630.704956 558.044067,629.988098 
	C564.267883,628.784668 570.017944,624.989136 575.851990,622.054871 
	C576.798157,621.578918 577.863892,619.099426 577.669922,618.930664 
	C574.221680,615.930908 576.766174,612.013733 575.897095,608.754578 
	C574.255371,602.598145 572.037659,596.592712 569.985168,590.549805 
	C569.403381,588.836914 568.564819,587.211243 567.716980,585.252075 
	C562.182922,583.745972 561.525940,582.011475 564.856201,576.678467 
	C565.909729,574.991333 567.007812,573.320312 567.896179,571.547180 
	C568.277649,570.785706 568.502930,569.671753 568.243164,568.906738 
	C566.134033,562.695068 563.811340,556.554749 561.789368,550.316345 
	C561.519043,549.482117 562.566101,548.220825 563.395264,547.093628 
	C565.860291,547.368225 567.933167,547.706604 570.086731,548.202637 
	C570.437012,548.283752 570.706604,548.207275 571.356689,548.082581 
	C573.491455,548.358154 575.245728,548.682007 577.134521,549.225586 
	C577.833252,549.350342 578.397400,549.255310 579.261658,549.096558 
	C580.348755,549.214539 581.135803,549.396301 582.026367,549.906189 
	C582.775818,550.827454 583.421753,551.420593 584.067627,552.013733 
	C584.980042,554.341553 585.892517,556.669312 587.007446,559.592285 
	C587.484314,560.461060 587.758728,560.734680 588.033142,561.008362 
	C588.033142,561.008362 588.177246,561.303284 588.135010,561.794189 
	C588.581543,562.855347 589.070251,563.425659 589.559021,563.995911 
	C589.762451,564.628235 589.965820,565.260559 590.185791,566.530151 
	C590.474854,567.446594 590.747437,567.725647 591.019958,568.004761 
	C591.019958,568.004761 591.162537,568.310852 591.126099,568.842529 
	C591.896606,570.581299 592.703552,571.788330 593.510498,572.995422 
	C593.727600,573.625610 593.944702,574.255859 594.181458,575.524170 
	C594.470947,576.442200 594.740784,576.722107 595.010620,577.002014 
	C603.157898,594.955444 611.367920,612.880676 619.435852,630.869690 
	C628.762207,651.664612 637.966858,672.514038 647.207397,693.347412 
	C647.607422,694.249207 647.837708,695.226196 648.172729,696.552246 
	C640.616150,690.041016 633.482056,682.558594 625.365173,676.363831 
	C603.498108,659.675354 578.567017,649.679321 551.203247,644.027832 
	C550.198975,643.621155 549.637390,643.659973 549.075806,643.698853 
	C548.273682,643.626953 547.471497,643.555054 546.181519,643.049500 
	C544.499634,642.622131 543.305481,642.628418 542.111389,642.634766 
	C541.300842,642.594482 540.490234,642.554199 539.151245,642.051758 
	C536.459290,641.599426 534.295715,641.609253 532.132202,641.619080 
	C531.323242,641.612366 530.514221,641.605713 529.156799,641.115540 
	C521.202698,640.453491 513.797363,640.251709 506.390625,640.152893 
	C505.938995,640.146912 505.476471,640.956116 505.019012,641.386047 
	C504.545990,641.510010 504.072968,641.633972 502.965088,641.503174 
	C500.565887,641.538147 498.801544,641.827942 497.037170,642.117798 
	C495.936066,642.335510 494.834961,642.553223 493.084656,642.526917 
	C491.299988,642.579163 490.164520,642.875427 489.029022,643.171692 
	C488.566376,643.348877 488.103699,643.526062 487.075806,643.503052 
	C485.683441,643.569153 484.856293,643.835327 484.029175,644.101562 
	C483.562622,644.286865 483.096069,644.472107 482.026001,644.454651 
	C480.617432,644.515198 479.812378,644.778442 479.007324,645.041748 
	C478.494781,645.263428 477.982269,645.485046 477.072998,645.553467 
	C476.360687,645.336975 476.121857,645.458801 475.959808,645.765747 
	C475.959808,645.765747 475.793457,645.941040 475.575378,645.947449 
	C475.357269,645.953857 475.137665,645.954651 475.137665,645.954651 
	C464.912781,649.353333 454.470337,652.216125 444.508026,656.261475 
	C423.339417,664.857361 404.661713,677.331055 388.743469,694.282471 
	C391.302429,686.987915 394.033295,679.542053 397.115295,672.244568 
	C401.399109,662.101501 405.899597,652.048767 410.395721,641.996887 
	C413.874451,634.219482 417.488770,626.502747 421.491089,618.371704 
	C429.100800,616.364807 427.492126,610.599915 427.739929,605.712585 
	C427.739929,605.712585 427.819794,605.817749 428.027222,605.777832 
	C428.207855,605.166260 428.181061,604.594666 428.154297,604.023010 
M543.525146,627.313782 
	C542.978516,626.975220 542.431885,626.636658 541.885254,626.298096 
	C541.750488,626.572205 541.615723,626.846375 541.480957,627.120483 
	C542.016296,627.325500 542.551636,627.530518 543.525146,627.313782 
z"/>
<path fill="#494847" opacity="1.000000" stroke="none" 
	d="
M625.035339,557.890686 
	C615.412720,555.596130 605.808533,553.219971 596.158752,551.046021 
	C592.133057,550.138977 588.010376,549.661926 583.421875,548.623108 
	C577.584534,536.178040 572.257141,524.099243 567.377197,512.014526 
	C573.143555,512.514465 578.621155,509.104156 583.873474,512.702576 
	C584.355652,513.032898 585.923706,512.485413 586.481506,511.879578 
	C589.387207,508.723755 592.010681,505.304779 594.963013,502.196411 
	C597.598816,499.421417 600.157715,496.232391 603.422363,494.471863 
	C608.987915,491.470612 611.124207,490.058960 613.876648,484.291290 
	C613.948303,484.141083 614.000916,483.979004 614.090393,483.840546 
	C617.852051,478.017242 621.611755,472.192566 625.393311,466.382202 
	C625.656982,465.977081 626.119995,465.707642 626.436584,465.330048 
	C632.903381,457.617188 641.608948,451.597290 644.536072,441.183105 
	C644.841675,440.095856 646.129517,439.070312 647.210815,438.451324 
	C652.955017,435.163208 658.613647,431.727509 665.802063,432.933228 
	C670.158020,433.663910 672.750732,430.348846 672.756531,426.930511 
	C672.766296,421.201538 674.006714,416.599243 678.418701,412.757446 
	C679.647766,411.687286 679.777832,409.425415 680.619934,407.819244 
	C681.347778,406.431000 682.370544,405.197357 683.262939,403.895386 
	C690.141663,418.979370 697.033020,434.057587 703.891479,449.150818 
	C706.019836,453.834595 708.058777,458.559021 709.810486,463.637817 
	C708.309570,464.522675 706.812805,464.736877 706.020935,465.598785 
	C702.858948,469.040222 699.493958,471.468414 694.407898,471.252014 
	C692.553772,471.173157 690.152039,472.512390 688.818909,473.959106 
	C685.771790,477.265839 683.229858,481.038086 680.524170,484.567200 
	C680.278748,484.615845 680.110413,484.698914 679.962524,484.671509 
	C671.346497,483.072906 667.473389,485.236176 663.348145,492.740540 
	C662.088257,495.032562 659.043823,496.302765 656.963684,498.201935 
	C655.920593,499.154266 654.401001,500.522858 654.474487,501.610138 
	C655.021179,509.702118 654.160706,511.383881 646.542969,513.947693 
	C642.212097,515.405273 639.915588,518.042969 639.950684,522.718201 
	C639.961487,524.166809 639.634583,525.712891 639.078003,527.055054 
	C636.041931,534.377075 636.076782,541.407227 638.797913,549.052002 
	C639.982361,552.379395 637.722168,556.932983 636.632507,560.919556 
	C632.504150,559.903137 628.769775,558.896912 625.035339,557.890686 
z"/>
<path fill="#7D7D7C" opacity="1.000000" stroke="none" 
	d="
M625.054932,558.258240 
	C628.769775,558.896912 632.504150,559.903137 636.846924,561.222900 
	C642.290222,562.981140 647.125183,564.425842 652.281616,566.046448 
	C654.727173,567.113037 656.852356,568.001282 658.975281,568.894958 
	C666.983582,572.266785 674.991028,575.640381 682.847168,579.318481 
	C681.585571,581.511047 679.536072,583.425720 679.589783,585.279419 
	C679.667297,587.950745 681.104065,590.654602 682.266174,593.205505 
	C683.965820,596.936340 685.950195,600.536865 687.787231,604.205933 
	C689.871826,608.369324 691.869812,612.577209 694.022095,616.705017 
	C695.015259,618.609863 695.963074,620.718933 697.490356,622.130981 
	C702.127258,626.417969 706.400879,630.788269 707.022400,637.532166 
	C707.803406,646.006714 707.932800,646.084045 716.067322,645.165771 
	C716.718567,645.092285 717.440735,645.002625 718.038635,645.198914 
	C726.757141,648.059937 734.077332,652.626343 736.805969,662.040344 
	C738.629333,668.331116 742.250793,672.820496 748.166321,675.619019 
	C753.522766,678.153137 757.909180,681.439514 757.077026,688.418823 
	C756.957397,689.422241 757.544250,690.701782 758.184875,691.573914 
	C763.963318,699.439941 769.609924,707.420227 775.769714,714.980408 
	C778.312744,718.101562 781.632263,721.334839 785.272217,722.643616 
	C790.790466,724.627808 796.929810,724.822510 802.742249,726.070801 
	C807.050110,726.995972 810.721924,728.493042 814.157227,732.145386 
	C819.424438,737.745178 826.200806,741.953125 832.499329,746.527771 
	C833.530334,747.276550 835.396240,746.875732 836.876282,747.006226 
	C839.032959,751.702881 841.189575,756.399475 843.448975,761.459106 
	C839.347046,760.761047 835.194885,759.215759 830.925354,758.752991 
	C824.607056,758.068054 818.074097,757.256775 811.877136,758.166077 
	C805.983337,759.030884 800.569092,760.365295 795.500061,756.186829 
	C797.950928,750.170898 797.336243,747.990662 792.551697,747.446777 
	C790.996643,747.269897 788.961609,748.127563 787.776917,749.205383 
	C787.171326,749.756348 787.460632,752.248291 788.205750,753.159058 
	C791.252747,756.883545 788.707397,759.670227 786.462830,761.752197 
	C784.082886,763.959839 781.602356,767.210083 777.120789,764.262146 
	C774.914551,762.810974 771.576111,762.649841 768.753662,762.663513 
	C764.035339,762.686462 761.632324,758.117188 762.602173,752.790039 
	C763.700867,746.754639 763.701965,740.488037 763.741516,734.319092 
	C763.748962,733.158508 761.892578,731.640320 760.558411,730.879761 
	C756.062256,728.316589 754.304077,724.783325 755.565613,719.676392 
	C755.906738,718.295532 756.063416,716.552429 755.517761,715.325623 
	C753.445312,710.666321 751.337524,705.971558 748.650574,701.659119 
	C747.377075,699.615295 744.794800,698.367310 742.754150,696.826843 
	C740.789917,695.344116 738.433105,694.241943 736.827942,692.452942 
	C733.762634,689.036560 730.898926,689.153381 727.949951,692.239746 
	C725.738953,694.553650 723.596741,694.624084 720.481079,692.504211 
	C723.964294,690.807129 726.927368,689.363525 729.824097,687.952148 
	C727.132935,679.874023 723.984802,677.897400 715.463318,681.307312 
	C708.852234,683.952820 703.887024,683.359192 698.933044,678.659485 
	C698.040955,677.813171 696.628052,677.515930 695.341492,676.911621 
	C695.543762,675.147156 695.726135,673.556396 695.838928,672.572388 
	C690.464722,669.655090 685.313049,667.183960 680.570068,664.086792 
	C679.135742,663.150146 678.058044,660.439819 678.150696,658.609436 
	C678.509644,651.515991 679.653625,644.461670 679.992493,637.368225 
	C680.148987,634.093079 679.868103,630.397644 678.469421,627.536011 
	C676.027588,622.540405 672.766785,617.893188 669.414978,613.425842 
	C668.402588,612.076477 665.876587,611.944885 664.184998,611.002319 
	C662.059448,609.818115 659.174133,608.834351 658.214844,606.950378 
	C655.856812,602.319458 651.369507,598.219727 653.740295,591.876343 
	C654.286743,590.414124 652.763428,587.665283 651.463928,586.122131 
	C647.523071,581.442261 643.418335,576.860046 638.990234,572.646667 
	C636.530579,570.306213 632.930481,569.150208 630.522827,566.773132 
	C628.245422,564.524658 626.855042,561.377625 625.054932,558.258240 
z"/>
<path fill="#828180" opacity="1.000000" stroke="none" 
	d="
M836.828613,746.655273 
	C835.396240,746.875732 833.530334,747.276550 832.499329,746.527771 
	C826.200806,741.953125 819.424438,737.745178 814.157227,732.145386 
	C810.721924,728.493042 807.050110,726.995972 802.742249,726.070801 
	C796.929810,724.822510 790.790466,724.627808 785.272217,722.643616 
	C781.632263,721.334839 778.312744,718.101562 775.769714,714.980408 
	C769.609924,707.420227 763.963318,699.439941 758.184875,691.573914 
	C757.544250,690.701782 756.957397,689.422241 757.077026,688.418823 
	C757.909180,681.439514 753.522766,678.153137 748.166321,675.619019 
	C742.250793,672.820496 738.629333,668.331116 736.805969,662.040344 
	C734.077332,652.626343 726.757141,648.059937 718.038635,645.198914 
	C717.440735,645.002625 716.718567,645.092285 716.067322,645.165771 
	C707.932800,646.084045 707.803406,646.006714 707.022400,637.532166 
	C706.400879,630.788269 702.127258,626.417969 697.490356,622.130981 
	C695.963074,620.718933 695.015259,618.609863 694.022095,616.705017 
	C691.869812,612.577209 689.871826,608.369324 687.787231,604.205933 
	C685.950195,600.536865 683.965820,596.936340 682.266174,593.205505 
	C681.104065,590.654602 679.667297,587.950745 679.589783,585.279419 
	C679.536072,583.425720 681.585571,581.511047 683.206665,579.356140 
	C691.372559,583.101807 699.192871,586.831360 706.648865,591.184692 
	C724.323120,601.504150 741.145569,613.031067 756.539124,626.629700 
	C770.763489,639.195435 784.249146,652.393494 795.833130,667.490112 
	C798.949036,671.550720 802.733521,675.098267 806.211060,678.881348 
	C806.211060,678.881348 806.147522,678.983582 806.113281,679.306030 
	C806.468872,680.189758 806.858765,680.751038 807.248596,681.312378 
	C812.489990,692.704712 817.770874,704.079163 822.960999,715.494812 
	C827.619446,725.741028 832.178162,736.032593 836.828613,746.655273 
z"/>
<path fill="#424241" opacity="1.000000" stroke="none" 
	d="
M683.221069,403.557739 
	C682.370544,405.197357 681.347778,406.431000 680.619934,407.819244 
	C679.777832,409.425415 679.647766,411.687286 678.418701,412.757446 
	C674.006714,416.599243 672.766296,421.201538 672.756531,426.930511 
	C672.750732,430.348846 670.158020,433.663910 665.802063,432.933228 
	C658.613647,431.727509 652.955017,435.163208 647.210815,438.451324 
	C646.129517,439.070312 644.841675,440.095856 644.536072,441.183105 
	C641.608948,451.597290 632.903381,457.617188 626.436584,465.330048 
	C626.119995,465.707642 625.656982,465.977081 625.393311,466.382202 
	C621.611755,472.192566 617.852051,478.017242 614.090393,483.840546 
	C614.000916,483.979004 613.948303,484.141083 613.876648,484.291290 
	C611.124207,490.058960 608.987915,491.470612 603.422363,494.471863 
	C600.157715,496.232391 597.598816,499.421417 594.963013,502.196411 
	C592.010681,505.304779 589.387207,508.723755 586.481506,511.879578 
	C585.923706,512.485413 584.355652,513.032898 583.873474,512.702576 
	C578.621155,509.104156 573.143555,512.514465 567.119263,511.776855 
	C560.439270,498.041199 554.464722,484.537323 548.661133,470.632996 
	C549.540039,469.567749 550.142090,468.692352 550.973938,468.274628 
	C554.626831,466.440338 558.291199,464.606323 562.062012,463.038208 
	C564.308594,462.103912 566.747986,461.613434 569.124451,461.018372 
	C570.553467,460.660492 572.704773,461.006165 573.370544,460.141632 
	C577.127991,455.262421 583.226074,454.950592 587.867004,452.127838 
	C596.684875,446.764465 603.035339,438.940765 604.075928,427.931000 
	C604.195435,426.666199 604.787231,425.344208 605.482117,424.253967 
	C607.956055,420.372742 610.199341,416.249603 613.237915,412.851044 
	C616.035339,409.722260 619.151123,405.891022 624.192200,407.006012 
	C630.391174,408.377106 631.687622,406.763977 633.239807,400.436279 
	C634.754578,394.261017 637.879761,388.373779 640.994202,382.745361 
	C642.440247,380.132111 645.440674,378.582062 644.220398,374.707062 
	C643.875244,373.611115 645.238342,371.550232 646.351746,370.494904 
	C651.518616,365.597137 657.655090,362.852600 664.907898,362.996857 
	C667.656311,368.942474 670.404724,374.888123 673.024902,381.537781 
	C670.923218,385.577667 667.718384,388.497589 669.670593,393.062256 
	C671.807800,398.059479 675.369446,400.584503 680.902771,400.004211 
	C681.661560,401.076172 682.420288,402.148102 683.221069,403.557739 
z"/>
<path fill="#5C5B5A" opacity="1.000000" stroke="none" 
	d="
M806.160706,678.516113 
	C802.733521,675.098267 798.949036,671.550720 795.833130,667.490112 
	C784.249146,652.393494 770.763489,639.195435 756.539124,626.629700 
	C741.145569,613.031067 724.323120,601.504150 706.648865,591.184692 
	C699.192871,586.831360 691.372559,583.101807 683.358337,579.051025 
	C674.991028,575.640381 666.983582,572.266785 658.975281,568.894958 
	C656.852356,568.001282 654.727173,567.113037 652.335876,565.714355 
	C655.497864,562.294617 658.927063,559.382812 662.356201,556.470947 
	C662.499329,557.037109 662.642456,557.603333 662.785583,558.169495 
	C665.149048,559.232544 667.512512,560.295593 669.875977,561.358582 
	C670.056274,558.840942 669.779419,556.175232 670.534912,553.843994 
	C671.438171,551.056641 672.623779,547.800415 674.762512,546.099609 
	C678.348572,543.247864 682.608826,540.994263 686.919128,539.379944 
	C690.509277,538.035278 694.952637,536.708496 698.324768,537.709473 
	C701.388977,538.619019 702.889832,537.679810 704.882080,536.471619 
	C710.839539,532.858765 714.202454,527.290771 717.279297,521.182800 
	C720.023132,515.735901 723.926575,510.837616 730.295288,508.907562 
	C736.378296,522.374695 742.502197,535.823547 748.536682,549.312378 
	C767.745850,592.250549 786.921631,635.203613 806.160706,678.516113 
z"/>
<path fill="#010B4D" opacity="1.000000" stroke="none" 
	d="
M600.177856,222.496796 
	C597.679382,228.026108 594.853271,233.183289 592.365906,238.498978 
	C585.569946,253.022568 578.911499,267.610535 572.222595,282.184052 
	C571.884216,282.921356 571.771118,283.762085 570.993835,284.565125 
	C568.657532,280.482544 568.304077,275.734741 563.533997,273.137817 
	C562.053894,272.332031 560.920776,268.747467 561.412598,266.913391 
	C562.394836,263.250519 560.528015,261.364288 558.611938,259.031128 
	C557.173218,257.279236 556.179871,255.167252 554.927063,253.255661 
	C553.596741,251.225891 552.197754,249.240967 550.822510,247.240723 
	C547.397339,242.258896 541.246155,241.998306 536.591919,239.118774 
	C534.246033,237.667389 531.338623,236.230927 528.725586,236.300827 
	C524.110657,236.424271 521.915100,233.549667 520.471008,230.405945 
	C518.394653,225.885788 515.253967,225.774033 511.627319,227.257690 
	C508.534851,228.522842 507.188019,227.688309 505.984833,224.741959 
	C504.008759,219.903030 499.286896,219.446976 496.654755,223.938416 
	C494.438904,227.719421 491.925354,227.776230 487.964417,227.016266 
	C478.642578,225.227753 469.273682,222.553070 459.617401,225.259796 
	C454.653595,226.651199 450.199219,224.954819 447.111328,221.355133 
	C444.595673,218.422455 442.406403,216.736923 438.526886,217.949142 
	C437.467560,218.280136 436.215057,217.992935 435.051208,217.989441 
	C434.709473,217.195267 434.367767,216.401093 433.965393,215.288437 
	C444.055847,203.917892 456.987213,197.710800 471.600800,197.132004 
	C497.544861,196.104462 523.559692,195.849915 549.515503,196.481247 
	C567.508789,196.918945 584.070618,202.491669 596.192078,217.115738 
	C597.541809,218.744171 598.737610,220.500153 600.177856,222.496796 
z"/>
<path fill="#3D3D3C" opacity="1.000000" stroke="none" 
	d="
M664.889709,362.635132 
	C657.655090,362.852600 651.518616,365.597137 646.351746,370.494904 
	C645.238342,371.550232 643.875244,373.611115 644.220398,374.707062 
	C645.440674,378.582062 642.440247,380.132111 640.994202,382.745361 
	C637.879761,388.373779 634.754578,394.261017 633.239807,400.436279 
	C631.687622,406.763977 630.391174,408.377106 624.192200,407.006012 
	C619.151123,405.891022 616.035339,409.722260 613.237915,412.851044 
	C610.199341,416.249603 607.956055,420.372742 605.482117,424.253967 
	C604.787231,425.344208 604.195435,426.666199 604.075928,427.931000 
	C603.035339,438.940765 596.684875,446.764465 587.867004,452.127838 
	C583.226074,454.950592 577.127991,455.262421 573.370544,460.141632 
	C572.704773,461.006165 570.553467,460.660492 569.124451,461.018372 
	C566.747986,461.613434 564.308594,462.103912 562.062012,463.038208 
	C558.291199,464.606323 554.626831,466.440338 550.973938,468.274628 
	C550.142090,468.692352 549.540039,469.567749 548.451355,470.306274 
	C543.587646,460.183319 539.104858,449.986572 534.622009,439.789856 
	C538.411926,437.146393 542.201843,434.502960 546.329041,431.624207 
	C552.211487,434.205383 555.057190,432.769226 557.294250,425.612305 
	C558.677673,421.186279 561.708496,418.421173 566.074890,416.799805 
	C570.308350,415.227844 575.022583,413.903351 573.161255,407.358643 
	C572.762451,405.956085 573.781860,403.402496 574.992371,402.427460 
	C578.921082,399.262909 583.190063,396.505402 587.428406,393.745239 
	C590.804749,391.546387 594.317810,389.555695 597.788818,387.504181 
	C601.443542,385.344086 605.363464,383.533539 608.683594,380.948730 
	C610.303406,379.687653 611.919006,376.857910 611.655579,375.005646 
	C610.365112,365.929565 612.505493,360.673828 620.488342,356.415039 
	C622.642151,355.266022 625.102295,354.440613 627.514160,354.073181 
	C634.621216,352.990540 636.544983,350.208679 639.290710,343.312836 
	C641.269409,338.343475 645.834106,334.403778 649.615662,330.002136 
	C654.947815,340.757446 659.909668,351.515442 664.889709,362.635132 
z"/>
<path fill="#4F4F4E" opacity="1.000000" stroke="none" 
	d="
M730.232544,508.538574 
	C723.926575,510.837616 720.023132,515.735901 717.279297,521.182800 
	C714.202454,527.290771 710.839539,532.858765 704.882080,536.471619 
	C702.889832,537.679810 701.388977,538.619019 698.324768,537.709473 
	C694.952637,536.708496 690.509277,538.035278 686.919128,539.379944 
	C682.608826,540.994263 678.348572,543.247864 674.762512,546.099609 
	C672.623779,547.800415 671.438171,551.056641 670.534912,553.843994 
	C669.779419,556.175232 670.056274,558.840942 669.875977,561.358582 
	C667.512512,560.295593 665.149048,559.232544 662.785583,558.169495 
	C662.642456,557.603333 662.499329,557.037109 662.356201,556.470947 
	C658.927063,559.382812 655.497864,562.294617 652.014465,565.538574 
	C647.125183,564.425842 642.290222,562.981140 637.240845,561.233032 
	C637.722168,556.932983 639.982361,552.379395 638.797913,549.052002 
	C636.076782,541.407227 636.041931,534.377075 639.078003,527.055054 
	C639.634583,525.712891 639.961487,524.166809 639.950684,522.718201 
	C639.915588,518.042969 642.212097,515.405273 646.542969,513.947693 
	C654.160706,511.383881 655.021179,509.702118 654.474487,501.610138 
	C654.401001,500.522858 655.920593,499.154266 656.963684,498.201935 
	C659.043823,496.302765 662.088257,495.032562 663.348145,492.740540 
	C667.473389,485.236176 671.346497,483.072906 679.962524,484.671509 
	C680.110413,484.698914 680.278748,484.615845 680.524170,484.567200 
	C683.229858,481.038086 685.771790,477.265839 688.818909,473.959106 
	C690.152039,472.512390 692.553772,471.173157 694.407898,471.252014 
	C699.493958,471.468414 702.858948,469.040222 706.020935,465.598785 
	C706.812805,464.736877 708.309570,464.522675 709.866699,464.010803 
	C716.890564,478.730408 723.530151,493.449982 730.232544,508.538574 
z"/>
<path fill="#494847" opacity="1.000000" stroke="none" 
	d="
M680.992615,399.626495 
	C675.369446,400.584503 671.807800,398.059479 669.670593,393.062256 
	C667.718384,388.497589 670.923218,385.577667 673.053711,381.890503 
	C675.834656,387.442413 678.458557,393.345612 680.992615,399.626495 
z"/>
<path fill="#31D8CF" opacity="1.000000" stroke="none" 
	d="
M505.470764,641.507263 
	C505.476471,640.956116 505.938995,640.146912 506.390625,640.152893 
	C513.797363,640.251709 521.202698,640.453491 528.787842,640.938965 
	C521.285767,641.373352 513.604126,641.500916 505.470764,641.507263 
z"/>
<path fill="#31D8CF" opacity="1.000000" stroke="none" 
	d="
M497.383209,642.243286 
	C498.801544,641.827942 500.565887,641.538147 502.598877,641.441956 
	C501.154755,641.880005 499.442017,642.124390 497.383209,642.243286 
z"/>
<path fill="#31D8CF" opacity="1.000000" stroke="none" 
	d="
M532.505737,641.738159 
	C534.295715,641.609253 536.459290,641.599426 538.790710,641.857178 
	C536.932129,642.035583 534.905701,641.946350 532.505737,641.738159 
z"/>
<path fill="#31D8CF" opacity="1.000000" stroke="none" 
	d="
M542.419922,642.766602 
	C543.305481,642.628418 544.499634,642.622131 545.827515,642.848938 
	C544.883667,643.020813 543.806091,642.959656 542.419922,642.766602 
z"/>
<path fill="#31D8CF" opacity="1.000000" stroke="none" 
	d="
M489.338806,643.286377 
	C490.164520,642.875427 491.299988,642.579163 492.659973,642.467041 
	C491.805847,642.901123 490.727203,643.151123 489.338806,643.286377 
z"/>
<path fill="#31D8CF" opacity="1.000000" stroke="none" 
	d="
M484.309326,644.213623 
	C484.856293,643.835327 485.683441,643.569153 486.700317,643.474487 
	C486.123169,643.872559 485.356354,644.099121 484.309326,644.213623 
z"/>
<path fill="#31D8CF" opacity="1.000000" stroke="none" 
	d="
M479.374207,645.074585 
	C479.812378,644.778442 480.617432,644.515198 481.645905,644.426025 
	C481.159912,644.769226 480.450500,644.938354 479.374207,645.074585 
z"/>
<path fill="#31D8CF" opacity="1.000000" stroke="none" 
	d="
M549.381042,643.830566 
	C549.637390,643.659973 550.198975,643.621155 550.883301,643.801025 
	C550.566162,644.000671 550.126221,643.981506 549.381042,643.830566 
z"/>
<path fill="#072E8B" opacity="1.000000" stroke="none" 
	d="
M389.212708,304.876221 
	C389.324402,305.315552 389.225006,305.985138 388.765320,306.765625 
	C388.603851,306.286530 388.802765,305.696533 389.212708,304.876221 
z"/>
<path fill="#5C5B5A" opacity="1.000000" stroke="none" 
	d="
M807.201660,680.956177 
	C806.858765,680.751038 806.468872,680.189758 806.060425,679.277100 
	C806.412781,679.483887 806.783813,680.041992 807.201660,680.956177 
z"/>
<path fill="#31D8CF" opacity="1.000000" stroke="none" 
	d="
M476.209167,645.793335 
	C476.121857,645.458801 476.360687,645.336975 476.789581,645.494080 
	C476.754730,645.665710 476.606598,645.743347 476.209167,645.793335 
z"/>
<path fill="#31D8CF" opacity="1.000000" stroke="none" 
	d="
M475.172546,646.061523 
	C475.137665,645.954651 475.357269,645.953857 475.458496,645.916809 
	C475.559692,645.879761 475.511261,646.163696 475.511261,646.163696 
	C475.511261,646.163696 475.207458,646.168335 475.172546,646.061523 
z"/>
<path fill="#011156" opacity="1.000000" stroke="none" 
	d="
M413.625763,560.045227 
	C413.984497,560.512451 414.169067,561.176086 413.917603,561.485779 
	C409.239685,567.246704 409.845001,574.974121 406.704559,581.133423 
	C403.786530,586.856506 399.054840,591.629150 395.480438,597.056458 
	C394.135101,599.099243 393.245972,601.774963 393.109039,604.216003 
	C392.757050,610.489868 393.428009,616.911011 388.639343,622.043701 
	C388.421539,622.277161 388.192261,622.624695 388.192505,622.918945 
	C388.203857,636.858643 377.111359,645.871643 372.672546,657.842529 
	C371.447876,661.145264 369.973297,664.463074 367.997894,667.353333 
	C365.298584,671.302673 362.003265,674.843689 358.981689,678.574585 
	C358.475647,679.199463 358.010681,680.506042 357.613495,680.472412 
	C352.421082,680.033264 351.366821,684.393494 348.574738,687.175049 
	C346.047333,689.692871 345.862976,692.137512 344.725342,694.875427 
	C342.082642,701.235718 340.834412,708.647949 334.531586,712.982056 
	C330.212372,715.952209 326.081635,719.486389 321.319183,721.420105 
	C318.138672,722.711426 313.916870,722.109924 310.302002,721.508545 
	C304.249207,720.501770 298.932526,720.543152 294.430939,725.688904 
	C291.803406,728.692383 289.163666,727.318298 287.144379,722.286255 
	C278.150299,723.341125 269.130005,724.419312 260.102264,725.430786 
	C259.036163,725.550232 257.433533,725.742615 256.917664,725.159668 
	C251.698120,719.260986 243.553650,719.085388 237.518448,715.051270 
	C233.351486,712.265930 229.654068,710.046875 224.372208,711.267761 
	C220.993530,712.048584 217.378738,711.807861 213.468597,712.019165 
	C224.502045,696.437439 235.936722,680.861633 247.976242,665.264038 
	C250.757568,664.100708 252.934036,662.959167 255.395554,661.668091 
	C261.687500,665.586365 261.679932,665.577881 267.585266,660.320557 
	C267.901398,660.039062 268.521423,660.098999 269.005646,660.379639 
	C269.439056,661.999329 269.635223,663.392334 270.335236,664.452759 
	C273.193176,668.781799 273.243927,676.116211 270.281891,680.228638 
	C266.881500,684.949707 268.343079,688.458191 274.191406,688.906616 
	C277.709473,689.176331 281.282898,688.674988 284.833099,688.609558 
	C285.735138,688.592957 286.649719,688.889465 287.547638,689.090820 
	C289.606110,689.552490 291.657867,690.044128 293.712341,690.523621 
	C295.032318,690.791565 296.125000,692.030396 297.441620,692.948059 
	C300.548676,695.113770 304.158539,696.719299 306.824066,699.312927 
	C309.628357,702.041626 311.716736,704.346191 315.163330,700.427368 
	C315.762726,699.745911 316.811279,699.261169 317.726807,699.094482 
	C320.159424,698.651672 323.310364,699.965515 324.130493,696.048950 
	C324.670227,693.471375 326.352142,690.699585 325.821381,688.408875 
	C323.879364,680.026978 327.618134,675.936218 335.198120,674.050659 
	C335.382385,674.004822 335.449158,673.486755 335.565552,673.186890 
	C330.360626,667.622742 330.593323,667.100220 338.375305,664.869568 
	C339.849335,664.447021 341.079376,663.105347 342.367188,662.116394 
	C344.458618,660.510254 346.315155,657.834839 348.607635,657.404480 
	C354.280304,656.339478 356.574097,652.502808 357.992065,647.826843 
	C358.970917,644.598938 359.267761,641.155212 359.760071,637.791992 
	C360.063324,635.720398 359.976074,633.581238 360.391174,631.538879 
	C361.133911,627.884155 362.020813,624.249695 363.065460,620.670410 
	C363.434906,619.404541 364.414551,618.307068 365.162354,617.163330 
	C366.736298,614.755920 370.066376,611.977417 369.627533,610.042542 
	C367.939362,602.598999 373.233185,595.195496 369.087006,587.838867 
	C366.754395,583.700073 369.976624,579.852783 370.959351,575.917175 
	C374.015808,574.588623 377.072296,573.260071 380.869049,572.088867 
	C388.210205,573.927246 391.692230,572.421692 393.955902,566.907715 
	C400.386780,564.630737 406.817688,562.353821 413.625763,560.045227 
z"/>
<path fill="#01135B" opacity="1.000000" stroke="none" 
	d="
M269.000000,660.000000 
	C268.521423,660.098999 267.901398,660.039062 267.585266,660.320557 
	C261.679932,665.577881 261.687500,665.586365 255.395554,661.668091 
	C252.934036,662.959167 250.757568,664.100708 248.275009,665.111450 
	C247.968918,664.980591 247.983353,664.484985 247.989548,664.237061 
	C252.717728,659.113953 257.361847,654.160339 262.175018,649.376892 
	C284.418701,627.270569 309.188995,608.462891 336.605011,593.247437 
	C347.612457,587.138489 358.999390,581.713318 370.586487,575.947083 
	C369.976624,579.852783 366.754395,583.700073 369.087006,587.838867 
	C373.233185,595.195496 367.939362,602.598999 369.627533,610.042542 
	C370.066376,611.977417 366.736298,614.755920 365.162354,617.163330 
	C364.414551,618.307068 363.434906,619.404541 363.065460,620.670410 
	C362.020813,624.249695 361.133911,627.884155 360.391174,631.538879 
	C359.976074,633.581238 360.063324,635.720398 359.760071,637.791992 
	C359.267761,641.155212 358.970917,644.598938 357.992065,647.826843 
	C356.574097,652.502808 354.280304,656.339478 348.607635,657.404480 
	C346.315155,657.834839 344.458618,660.510254 342.367188,662.116394 
	C341.079376,663.105347 339.849335,664.447021 338.375305,664.869568 
	C330.593323,667.100220 330.360626,667.622742 335.565552,673.186890 
	C335.449158,673.486755 335.382385,674.004822 335.198120,674.050659 
	C327.618134,675.936218 323.879364,680.026978 325.821381,688.408875 
	C326.352142,690.699585 324.670227,693.471375 324.130493,696.048950 
	C323.310364,699.965515 320.159424,698.651672 317.726807,699.094482 
	C316.811279,699.261169 315.762726,699.745911 315.163330,700.427368 
	C311.716736,704.346191 309.628357,702.041626 306.824066,699.312927 
	C304.158539,696.719299 300.548676,695.113770 297.441620,692.948059 
	C296.125000,692.030396 295.032318,690.791565 293.712341,690.523621 
	C291.657867,690.044128 289.606110,689.552490 287.547638,689.090820 
	C286.649719,688.889465 285.735138,688.592957 284.833099,688.609558 
	C281.282898,688.674988 277.709473,689.176331 274.191406,688.906616 
	C268.343079,688.458191 266.881500,684.949707 270.281891,680.228638 
	C273.243927,676.116211 273.193176,668.781799 270.335236,664.452759 
	C269.635223,663.392334 269.439056,661.999329 269.339966,660.331604 
	C270.424713,658.913025 271.180847,657.922058 271.936951,656.931152 
	C271.437408,656.671326 270.937836,656.411499 270.438293,656.151672 
	C269.958862,657.434448 269.479431,658.717224 269.000000,660.000000 
M277.295624,652.433289 
	C277.010712,652.705261 276.725830,652.977234 276.440948,653.249207 
	C276.553711,653.367065 276.758331,653.593689 276.766022,653.587158 
	C277.066498,653.333374 277.349060,653.058228 277.295624,652.433289 
z"/>
<path fill="#31D8CF" opacity="1.000000" stroke="none" 
	d="
M563.003052,547.157349 
	C562.566101,548.220825 561.519043,549.482117 561.789368,550.316345 
	C563.811340,556.554749 566.134033,562.695068 568.243164,568.906738 
	C568.502930,569.671753 568.277649,570.785706 567.896179,571.547180 
	C567.007812,573.320312 565.909729,574.991333 564.856201,576.678467 
	C561.525940,582.011475 562.182922,583.745972 567.716980,585.252075 
	C568.564819,587.211243 569.403381,588.836914 569.985168,590.549805 
	C572.037659,596.592712 574.255371,602.598145 575.897095,608.754578 
	C576.766174,612.013733 574.221680,615.930908 577.669922,618.930664 
	C577.863892,619.099426 576.798157,621.578918 575.851990,622.054871 
	C570.017944,624.989136 564.267883,628.784668 558.044067,629.988098 
	C554.337036,630.704956 549.690613,627.465454 545.703186,625.519714 
	C542.954407,624.178467 540.610962,622.006653 537.665894,619.906128 
	C536.925171,625.782410 535.051270,625.570679 530.730530,622.736694 
	C524.857361,618.884338 518.043396,620.961670 511.631714,622.373962 
	C511.129364,622.484680 510.383698,623.306885 510.414551,623.752441 
	C510.960480,631.635254 507.172546,626.402649 504.586548,625.861633 
	C498.700073,624.630127 492.441895,621.307068 487.638306,628.131348 
	C484.816010,624.538879 474.099060,620.336975 468.930023,620.448914 
	C468.015930,618.638672 467.554108,616.480042 466.219391,615.399414 
	C464.591858,614.081604 461.628113,616.826050 461.525970,619.190491 
	C461.454224,620.851624 460.792603,622.487366 460.394409,624.134399 
	C459.874146,624.034607 459.353882,623.934753 458.833618,623.834961 
	C458.226013,622.394043 457.618439,620.953125 457.522278,620.725159 
	C453.444244,619.248108 450.367157,618.133606 447.182861,616.980286 
	C449.145630,611.805786 450.956665,607.276306 452.579742,602.680420 
	C454.071320,598.456848 452.738464,596.934082 448.475525,595.890930 
	C443.540955,594.683289 438.786530,592.739502 433.597717,591.063354 
	C438.880432,578.275085 444.519348,565.538696 450.216827,552.425049 
	C450.552399,551.846619 450.829437,551.645630 451.609070,551.185181 
	C453.761322,550.750610 455.427704,550.671448 457.058075,550.386292 
	C492.219757,544.236755 527.517395,542.636169 563.003052,547.157349 
z"/>
<path fill="#FBFCFD" opacity="1.000000" stroke="none" 
	d="
M563.395264,547.093628 
	C527.517395,542.636169 492.219757,544.236755 457.058075,550.386292 
	C455.427704,550.671448 453.761322,550.750610 451.700470,550.933350 
	C451.881744,549.574341 452.474243,548.207764 453.336670,546.417236 
	C453.793396,545.692261 453.980164,545.391174 454.166962,545.090149 
	C454.166962,545.090149 454.054962,545.063782 454.343445,544.902344 
	C454.914429,543.929321 455.196899,543.117859 455.479370,542.306335 
	C455.479370,542.306335 455.339539,542.095947 455.622284,541.979248 
	C456.588623,539.910828 457.272217,537.959045 457.955811,536.007263 
	C462.127228,526.914917 466.471008,517.896790 470.429321,508.712555 
	C476.248444,495.210724 481.432312,481.425903 487.535950,468.058044 
	C497.206238,446.878571 507.413513,425.944275 517.694946,404.673584 
	C523.375427,416.029785 528.754639,427.618652 534.377930,439.498657 
	C539.104858,449.986572 543.587646,460.183319 548.280273,470.706787 
	C554.464722,484.537323 560.439270,498.041199 566.671814,511.782745 
	C572.257141,524.099243 577.584534,536.178040 583.015625,548.600708 
	C583.119263,548.944519 582.843323,549.108948 582.599609,549.270508 
	C582.355957,549.432068 581.922791,549.578003 581.922791,549.578003 
	C581.135803,549.396301 580.348755,549.214539 578.944092,548.993042 
	C577.884277,548.970825 577.442078,548.988281 576.999939,549.005737 
	C575.245728,548.682007 573.491455,548.358154 571.119995,547.994934 
	C570.337219,547.985352 570.171570,548.015137 570.005981,548.044922 
	C567.933167,547.706604 565.860291,547.368225 563.395264,547.093628 
z"/>
<path fill="#01135B" opacity="1.000000" stroke="none" 
	d="
M553.093994,323.207764 
	C550.036682,330.874817 547.211365,338.644409 543.876404,346.188721 
	C535.550964,365.022003 526.994019,383.752960 518.255188,402.731201 
	C508.104767,380.854309 498.292542,358.742615 488.337921,336.695160 
	C475.084442,307.341522 461.717987,278.038910 448.418640,248.705948 
	C448.151367,248.116470 448.111420,247.423950 448.330505,246.400879 
	C449.183838,246.108704 449.877960,246.017059 450.129700,246.308090 
	C454.408234,251.254440 459.767944,253.307281 466.298676,253.113281 
	C468.469574,253.048798 470.761078,254.099457 472.854034,254.980850 
	C476.939972,256.701599 480.811340,258.420105 484.658630,254.318909 
	C485.522644,253.397873 487.494568,252.898575 488.797058,253.124451 
	C492.424988,253.753616 496.081665,254.565933 499.520447,255.856293 
	C504.866272,257.862274 509.736664,261.513245 516.037231,259.162689 
	C517.052551,258.783905 519.009827,259.686493 519.959961,260.594788 
	C523.770752,264.238159 530.405212,265.272614 530.823486,272.146118 
	C530.853027,272.631653 531.655212,273.176086 532.209167,273.507416 
	C537.706177,276.795380 538.656128,282.790436 541.017395,287.989655 
	C543.311951,293.042175 545.957458,297.935455 548.458008,302.894012 
	C548.527222,303.031189 548.684875,303.157837 548.830750,303.217346 
	C552.715942,304.802612 552.524841,308.264618 551.829285,311.242645 
	C550.957764,314.974121 552.066895,317.313812 555.160400,319.089081 
	C555.160400,319.089081 555.135498,319.535004 554.790161,319.904419 
	C553.994568,321.251831 553.544312,322.229797 553.093994,323.207764 
z"/>
<path fill="#011156" opacity="1.000000" stroke="none" 
	d="
M555.444519,318.903564 
	C552.066895,317.313812 550.957764,314.974121 551.829285,311.242645 
	C552.524841,308.264618 552.715942,304.802612 548.830750,303.217346 
	C548.684875,303.157837 548.527222,303.031189 548.458008,302.894012 
	C545.957458,297.935455 543.311951,293.042175 541.017395,287.989655 
	C538.656128,282.790436 537.706177,276.795380 532.209167,273.507416 
	C531.655212,273.176086 530.853027,272.631653 530.823486,272.146118 
	C530.405212,265.272614 523.770752,264.238159 519.959961,260.594788 
	C519.009827,259.686493 517.052551,258.783905 516.037231,259.162689 
	C509.736664,261.513245 504.866272,257.862274 499.520447,255.856293 
	C496.081665,254.565933 492.424988,253.753616 488.797058,253.124451 
	C487.494568,252.898575 485.522644,253.397873 484.658630,254.318909 
	C480.811340,258.420105 476.939972,256.701599 472.854034,254.980850 
	C470.761078,254.099457 468.469574,253.048798 466.298676,253.113281 
	C459.767944,253.307281 454.408234,251.254440 450.129700,246.308090 
	C449.877960,246.017059 449.183838,246.108704 448.312134,246.023682 
	C443.651306,236.921021 439.373871,227.816971 435.073822,218.351166 
	C436.215057,217.992935 437.467560,218.280136 438.526886,217.949142 
	C442.406403,216.736923 444.595673,218.422455 447.111328,221.355133 
	C450.199219,224.954819 454.653595,226.651199 459.617401,225.259796 
	C469.273682,222.553070 478.642578,225.227753 487.964417,227.016266 
	C491.925354,227.776230 494.438904,227.719421 496.654755,223.938416 
	C499.286896,219.446976 504.008759,219.903030 505.984833,224.741959 
	C507.188019,227.688309 508.534851,228.522842 511.627319,227.257690 
	C515.253967,225.774033 518.394653,225.885788 520.471008,230.405945 
	C521.915100,233.549667 524.110657,236.424271 528.725586,236.300827 
	C531.338623,236.230927 534.246033,237.667389 536.591919,239.118774 
	C541.246155,241.998306 547.397339,242.258896 550.822510,247.240723 
	C552.197754,249.240967 553.596741,251.225891 554.927063,253.255661 
	C556.179871,255.167252 557.173218,257.279236 558.611938,259.031128 
	C560.528015,261.364288 562.394836,263.250519 561.412598,266.913391 
	C560.920776,268.747467 562.053894,272.332031 563.533997,273.137817 
	C568.304077,275.734741 568.657532,280.482544 570.724243,284.801392 
	C565.918823,296.257507 560.823730,307.487793 555.444519,318.903564 
z"/>
<path fill="#01135B" opacity="1.000000" stroke="none" 
	d="
M393.562927,566.930176 
	C391.692230,572.421692 388.210205,573.927246 381.242126,572.068604 
	C384.973267,570.244934 389.071594,568.598755 393.562927,566.930176 
z"/>
<path fill="#0A3290" opacity="1.000000" stroke="none" 
	d="
M457.684174,536.216675 
	C457.272217,537.959045 456.588623,539.910828 455.661804,542.099243 
	C456.083221,540.365906 456.747864,538.395996 457.684174,536.216675 
z"/>
<path fill="#0A3290" opacity="1.000000" stroke="none" 
	d="
M455.120209,542.372620 
	C455.196899,543.117859 454.914429,543.929321 454.381104,544.945801 
	C454.340546,544.246826 454.550812,543.342834 455.120209,542.372620 
z"/>
<path fill="#0A3290" opacity="1.000000" stroke="none" 
	d="
M453.909576,545.181458 
	C453.980164,545.391174 453.793396,545.692261 453.333710,546.076904 
	C453.257965,545.864624 453.455078,545.568665 453.909576,545.181458 
z"/>
<path fill="#31D8CF" opacity="1.000000" stroke="none" 
	d="
M593.574219,572.670959 
	C592.703552,571.788330 591.896606,570.581299 591.113220,569.010864 
	C591.970459,569.880554 592.804199,571.113525 593.574219,572.670959 
z"/>
<path fill="#31D8CF" opacity="1.000000" stroke="none" 
	d="
M589.605225,563.698486 
	C589.070251,563.425659 588.581543,562.855347 588.118774,561.957520 
	C588.647034,562.220337 589.149231,562.810669 589.605225,563.698486 
z"/>
<path fill="#31D8CF" opacity="1.000000" stroke="none" 
	d="
M582.026367,549.906189 
	C581.922791,549.578003 582.355957,549.432068 582.584717,549.430420 
	C583.220276,550.041809 583.627014,550.654846 584.050659,551.640747 
	C583.421753,551.420593 582.775818,550.827454 582.026367,549.906189 
z"/>
<path fill="#31D8CF" opacity="1.000000" stroke="none" 
	d="
M594.957825,576.713318 
	C594.740784,576.722107 594.470947,576.442200 594.161560,575.860474 
	C594.382996,575.847290 594.644043,576.135986 594.957825,576.713318 
z"/>
<path fill="#31D8CF" opacity="1.000000" stroke="none" 
	d="
M590.955017,567.719604 
	C590.747437,567.725647 590.474854,567.446594 590.161499,566.864868 
	C590.377136,566.853027 590.633606,567.143738 590.955017,567.719604 
z"/>
<path fill="#31D8CF" opacity="1.000000" stroke="none" 
	d="
M587.966003,560.726196 
	C587.758728,560.734680 587.484314,560.461060 587.168579,559.887451 
	C587.384399,559.872986 587.641663,560.158508 587.966003,560.726196 
z"/>
<path fill="#31D8CF" opacity="1.000000" stroke="none" 
	d="
M427.401733,605.817749 
	C427.492126,610.599915 429.100800,616.364807 421.581970,617.996338 
	C423.170868,613.979980 425.117188,609.951416 427.401733,605.817749 
z"/>
<path fill="#31D8CF" opacity="1.000000" stroke="none" 
	d="
M428.057800,604.320251 
	C428.181061,604.594666 428.207855,605.166260 427.961426,605.783264 
	C427.779266,605.424927 427.870300,605.021179 428.057800,604.320251 
z"/>
<path fill="#011156" opacity="1.000000" stroke="none" 
	d="
M553.426025,323.095337 
	C553.544312,322.229797 553.994568,321.251831 554.751587,320.124390 
	C554.624939,320.977570 554.191528,321.980225 553.426025,323.095337 
z"/>
<path fill="#31D8CF" opacity="1.000000" stroke="none" 
	d="
M543.306030,627.524658 
	C542.551636,627.530518 542.016296,627.325500 541.480957,627.120483 
	C541.615723,626.846375 541.750488,626.572205 541.885254,626.298096 
	C542.431885,626.636658 542.978516,626.975220 543.306030,627.524658 
z"/>
<path fill="#31D8CF" opacity="1.000000" stroke="none" 
	d="
M577.134521,549.225586 
	C577.442078,548.988281 577.884277,548.970825 578.643982,549.056763 
	C578.397400,549.255310 577.833252,549.350342 577.134521,549.225586 
z"/>
<path fill="#31D8CF" opacity="1.000000" stroke="none" 
	d="
M570.086731,548.202576 
	C570.171570,548.015137 570.337219,547.985352 570.739502,548.043152 
	C570.706604,548.207275 570.437012,548.283752 570.086731,548.202576 
z"/>
<path fill="#011156" opacity="1.000000" stroke="none" 
	d="
M269.334290,659.952026 
	C269.479431,658.717224 269.958862,657.434448 270.438293,656.151672 
	C270.937836,656.411499 271.437408,656.671326 271.936951,656.931152 
	C271.180847,657.922058 270.424713,658.913025 269.334290,659.952026 
z"/>
<path fill="#011156" opacity="1.000000" stroke="none" 
	d="
M277.464783,652.609619 
	C277.349060,653.058228 277.066498,653.333374 276.766022,653.587158 
	C276.758331,653.593689 276.553711,653.367065 276.440948,653.249207 
	C276.725830,652.977234 277.010712,652.705261 277.464783,652.609619 
z"/>
</svg>